<svg width="41" height="40" viewBox="0 0 41 40" fill="none" xmlns="http://www.w3.org/2000/svg">
<path d="M19.9605 1.01659C20.3609 0.501223 21.1396 0.501224 21.54 1.0166L23.2196 3.17882C23.5301 3.57849 24.0902 3.6832 24.5241 3.42267L26.8715 2.01322C27.431 1.67728 28.1571 1.95859 28.3442 2.58378L29.1294 5.20676C29.2745 5.6916 29.759 5.99158 30.2577 5.90538L32.9557 5.43907C33.5988 5.32792 34.1742 5.85254 34.1229 6.50312L33.9075 9.23261C33.8677 9.73714 34.2111 10.1919 34.7073 10.2917L37.3915 10.8314C38.0313 10.9601 38.3784 11.6572 38.0955 12.2453L36.9087 14.7127C36.6893 15.1687 36.8452 15.7168 37.2718 15.9891L39.5798 17.4621C40.1299 17.8132 40.2018 18.5886 39.7255 19.0348L37.7275 20.9068C37.3582 21.2528 37.3056 21.8202 37.6051 22.2282L39.2251 24.4355C39.6112 24.9616 39.3981 25.7106 38.7929 25.9546L36.2535 26.9785C35.7841 27.1677 35.5301 27.6778 35.662 28.1664L36.3752 30.8099C36.5453 31.4399 36.076 32.0614 35.4234 32.0703L32.6857 32.1076C32.1797 32.1145 31.7586 32.4984 31.705 33.0017L31.4152 35.7243C31.3461 36.3732 30.684 36.7832 30.0723 36.5557L27.5059 35.6016C27.0316 35.4253 26.5002 35.6311 26.2685 36.081L25.0147 38.5151C24.7159 39.0952 23.9504 39.2383 23.4622 38.8053L21.4138 36.9885C21.0352 36.6527 20.4653 36.6527 20.0867 36.9885L18.0383 38.8053C17.5501 39.2383 16.7846 39.0952 16.4858 38.5151L15.232 36.081C15.0003 35.6311 14.4689 35.4253 13.9946 35.6016L11.4282 36.5557C10.8165 36.7832 10.1544 36.3732 10.0853 35.7243L9.79552 33.0017C9.74195 32.4984 9.32084 32.1145 8.81479 32.1076L6.07707 32.0703C5.42453 32.0614 4.95524 31.4399 5.12525 30.8098L5.83852 28.1664C5.97036 27.6778 5.71636 27.1677 5.24698 26.9785L2.70763 25.9546C2.10238 25.7106 1.88927 24.9616 2.2754 24.4355L3.89542 22.2282C4.19487 21.8202 4.14229 21.2528 3.77297 20.9068L1.77495 19.0348C1.29872 18.5886 1.37057 17.8132 1.92068 17.4621L4.22867 15.9891C4.65528 15.7168 4.81122 15.1687 4.59184 14.7127L3.40499 12.2453C3.1221 11.6572 3.46921 10.9601 4.109 10.8314L6.79324 10.2916C7.28941 10.1919 7.6328 9.73714 7.59299 9.23261L7.3776 6.50313C7.32626 5.85255 7.90175 5.32792 8.54482 5.43907L11.2428 5.90538C11.7415 5.99158 12.226 5.6916 12.3711 5.20676L13.1563 2.58378C13.3434 1.95859 14.0695 1.67728 14.629 2.01322L16.9764 3.42267C17.4103 3.6832 17.9704 3.57849 18.2809 3.17882L19.9605 1.01659Z" fill="#3B37FF"/>
<path d="M14.5002 19.9997H27.0002M20.7502 13.7498V26.2498" stroke="white" stroke-width="2" stroke-linecap="round" stroke-linejoin="round"/>
</svg>
