<svg width="32" height="31" viewBox="0 0 32 31" fill="none" xmlns="http://www.w3.org/2000/svg">
<path d="M15.2103 1.01165C15.6107 0.496279 16.3894 0.49628 16.7898 1.01165L17.778 2.28382C18.0885 2.68349 18.6486 2.7882 19.0825 2.52767L20.4636 1.69841C21.0231 1.36246 21.7492 1.64377 21.9364 2.26896L22.3983 3.81222C22.5435 4.29706 23.0279 4.59704 23.5266 4.51085L25.114 4.23648C25.7571 4.12534 26.3326 4.64996 26.2812 5.30054L26.1545 6.90646C26.1147 7.41099 26.4581 7.86573 26.9543 7.9655L28.5336 8.2831C29.1734 8.41176 29.5205 9.10884 29.2376 9.69695L28.5393 11.1486C28.3199 11.6047 28.4758 12.1528 28.9025 12.4251L30.2604 13.2917C30.8105 13.6428 30.8824 14.4182 30.4061 14.8644L29.2306 15.9658C28.8612 16.3119 28.8087 16.8793 29.1081 17.2873L30.0613 18.5859C30.4474 19.1121 30.2343 19.861 29.629 20.1051L28.135 20.7075C27.6656 20.8967 27.4116 21.4068 27.5435 21.8954L27.9631 23.4507C28.1331 24.0808 27.6638 24.7022 27.0113 24.7111L25.4005 24.7331C24.8945 24.74 24.4734 25.1239 24.4198 25.6272L24.2493 27.229C24.1802 27.878 23.5181 28.2879 22.9064 28.0605L21.3965 27.4991C20.9221 27.3228 20.3907 27.5286 20.159 27.9785L19.4213 29.4106C19.1225 29.9908 18.357 30.1339 17.8688 29.7009L16.6636 28.6319C16.285 28.2961 15.7151 28.2961 15.3365 28.6319L14.1313 29.7009C13.6431 30.1339 12.8776 29.9908 12.5788 29.4106L11.8411 27.9785C11.6094 27.5286 11.078 27.3228 10.6036 27.4991L9.09371 28.0605C8.48202 28.2879 7.81993 27.878 7.75085 27.229L7.58033 25.6272C7.52676 25.1239 7.10565 24.74 6.5996 24.7331L4.98883 24.7111C4.33629 24.7022 3.867 24.0808 4.03701 23.4507L4.45667 21.8954C4.58851 21.4068 4.33452 20.8967 3.86513 20.7075L2.37108 20.1051C1.76582 19.861 1.55272 19.112 1.93885 18.5859L2.89201 17.2873C3.19146 16.8793 3.13888 16.3119 2.76956 15.9658L1.594 14.8644C1.11777 14.4182 1.18962 13.6428 1.73973 13.2917L3.09766 12.4251C3.52427 12.1528 3.68021 11.6047 3.46083 11.1486L2.76254 9.69695C2.47965 9.10884 2.82676 8.41176 3.46655 8.2831L5.04585 7.9655C5.54202 7.86573 5.88542 7.41099 5.8456 6.90646L5.71887 5.30054C5.66754 4.64996 6.24302 4.12534 6.88609 4.23648L8.47347 4.51085C8.97217 4.59704 9.45665 4.29706 9.60179 3.81222L10.0637 2.26896C10.2509 1.64377 10.977 1.36246 11.5365 1.69841L12.9176 2.52767C13.3515 2.7882 13.9116 2.68349 14.2221 2.28382L15.2103 1.01165Z" fill="white"/>
<path d="M20.9237 15.0611C21.0142 15.1525 21.065 15.276 21.065 15.4046C21.065 15.5333 21.0142 15.6568 20.9237 15.7482L16.5836 20.0883C16.4911 20.1768 16.3681 20.2264 16.24 20.2269C16.176 20.2266 16.1127 20.2144 16.0532 20.1907C15.9654 20.1539 15.8905 20.0918 15.838 20.0124C15.7854 19.9331 15.7575 19.8399 15.7578 19.7447V15.8869H11.4178C11.2899 15.8869 11.1672 15.8361 11.0768 15.7456C10.9864 15.6552 10.9355 15.5325 10.9355 15.4046C10.9355 15.2767 10.9864 15.1541 11.0768 15.0637C11.1672 14.9732 11.2899 14.9224 11.4178 14.9224H15.7578V11.0646C15.7575 10.9694 15.7854 10.8762 15.838 10.7969C15.8905 10.7175 15.9654 10.6554 16.0532 10.6185C16.1423 10.5838 16.2393 10.575 16.3332 10.5931C16.4271 10.6112 16.5139 10.6556 16.5836 10.721L20.9237 15.0611Z" fill="black"/>
</svg>
