<svg width="706" height="674" viewBox="0 0 706 674" fill="none" xmlns="http://www.w3.org/2000/svg">
<path d="M706 57.6822L2.57198 57.6822M706 169.144L2.57198 169.144M706 113.413L2.57198 113.413M706 224.875L2.57198 224.875M706 280.606L2.57198 280.606M706 336.337L2.57198 336.337M703.428 503.529L0 503.529M706 392.068L2.57198 392.067M703.428 559.26L0 559.26M706 447.798L2.57198 447.798M703.428 614.991L0 614.991M62.5908 0L62.5908 671.545M179.732 0L179.732 671.545M121.162 0L121.162 671.545M238.303 0L238.303 671.545M296.874 0L296.874 671.545M355.445 0L355.445 671.545M531.157 2.45539L531.157 674M414.016 0L414.016 671.545M589.728 2.45539V674M472.586 0L472.586 671.545M648.299 2.45539V674" stroke="url(#paint0_radial_137_355)"/>
<defs>
<radialGradient id="paint0_radial_137_355" cx="0" cy="0" r="1" gradientUnits="userSpaceOnUse" gradientTransform="translate(353 337) rotate(90) scale(337 353)">
<stop stop-color="#666666"/>
<stop offset="1" stop-color="#18181A" stop-opacity="0"/>
</radialGradient>
</defs>
</svg>
